<svg xmlns="http://www.w3.org/2000/svg" viewBox="0 0 32 32"><g data-name="13-Mail"><path d="M11 24H4a4 4 0 0 1-4-4V4a4 4 0 0 1 4-4h24a4 4 0 0 1 4 4v9a1 1 0 0 1-2 0V4a2 2 0 0 0-2-2H4a2 2 0 0 0-2 2v16a2 2 0 0 0 2 2h7a1 1 0 0 1 0 2z"/><path d="M16 14a1 1 0 0 1-.618-.214l-14-11a1 1 0 0 1 1.236-1.572L16 11.728 29.382 1.214a1 1 0 1 1 1.236 1.572l-14 11A1 1 0 0 1 16 14z"/><path d="M2 23a1 1 0 0 1-.707-1.707l11-11a1 1 0 0 1 1.414 1.414l-11 11A1 1 0 0 1 2 23zM23 32a9 9 0 1 1 9-9 9.011 9.011 0 0 1-9 9zm0-16a7 7 0 1 0 7 7 7.008 7.008 0 0 0-7-7z"/><path d="M26 27a1 1 0 0 1-.707-.293l-6-6a1 1 0 0 1 1.414-1.414l6 6A1 1 0 0 1 26 27z"/><path d="M20 27a1 1 0 0 1-.707-1.707l6-6a1 1 0 0 1 1.414 1.414l-6 6A1 1 0 0 1 20 27z"/></g></svg>